<svg xmlns="http://www.w3.org/2000/svg" viewBox="0 0 464.93 476.04"><defs><style>.cls-1{fill:#a8763e;stroke:#a8763e;stroke-width:6.58px;}.cls-1,.cls-2,.cls-4,.cls-6{stroke-miterlimit:10;}.cls-2{fill:#af9164;stroke:#af9164;stroke-width:6.03px;}.cls-3{fill:#890202;}.cls-4{fill:none;stroke-width:1.81px;}.cls-4,.cls-6{stroke:#000;}.cls-5{opacity:0.2;}.cls-6{fill:#962f2f;stroke-width:2.11px;}</style></defs><title>La Njure</title><g id="Layer_2" data-name="Layer 2"><g id="Layer_1-2" data-name="Layer 1"><path class="cls-1" d="M230.39,473.63a751.53,751.53,0,0,0,149.5-192.4A751.64,751.64,0,0,0,461.24,43.1,670.85,670.85,0,0,0,228.45,3.31,686.67,686.67,0,0,0,3.7,43.38a757.48,757.48,0,0,0,82,237.85,757.38,757.38,0,0,0,149.5,192.4"/><path class="cls-2" d="M230.57,448.29a688.19,688.19,0,0,0,136.9-176.18A688.28,688.28,0,0,0,442,54.06,614.31,614.31,0,0,0,228.79,17.62,628.79,628.79,0,0,0,23,54.31a693.64,693.64,0,0,0,75,217.8,693.54,693.54,0,0,0,136.9,176.18"/><path class="cls-3" d="M202.33,334c-8.57,0-16.08-1.73-22.34-5.14l-.57-.29c-14.14-7.11-20.38-16.47-23.13-23.08-7.69-18.47,1-40.1,7.9-57.48a99.4,99.4,0,0,1,7.65-15.59c2.15-3.62,3.57-6,4.46-11.67.61-3.87,2.24-14.17-14.88-53.62-2.21-5.09-4.22-9.51-6-13.41-7.12-15.6-10.37-22.72-7.7-32.2a32.7,32.7,0,0,1,10.35-15.74l.08-.07c7.59-6.67,18.21-10,31.55-10,25.2,0,57,12.55,79.2,31.22A128.61,128.61,0,0,1,305.51,179c8.54,22.57,9.9,45.91,3.92,67.5-6.56,23.69-22.26,46-44.22,62.93C245.21,324.8,221.7,334,202.33,334Z"/><path d="M189.69,96.7c25,0,56.52,12.45,78.52,31a127.53,127.53,0,0,1,36.31,51.69c8.46,22.36,9.81,45.47,3.89,66.85-6.5,23.47-22.07,45.62-43.85,62.37-19.82,15.24-43.08,24.33-62.23,24.33-8.39,0-15.73-1.69-21.83-5l-.6-.31c-13.85-7-20-16.1-22.63-22.54-7.53-18.08,1-39.48,7.91-56.68a98.41,98.41,0,0,1,7.57-15.44c2.21-3.73,3.67-6.19,4.6-12,1.06-6.74.33-19-15-54.2-2.21-5.1-4.23-9.52-6-13.42-7-15.36-10.21-22.37-7.65-31.47a31.66,31.66,0,0,1,10-15.23l.09-.07c7.39-6.49,17.77-9.78,30.85-9.78h0m0-2.11c-12.69,0-24,3.11-32.24,10.31a34.46,34.46,0,0,0-10.75,16.32c-3.47,12.32,2.76,21,13.75,46.31,16.52,38.08,15.51,48.59,14.81,53-1.62,10.26-4.9,9.16-12,27-6.95,17.38-15.76,39.41-7.9,58.28,6.64,15.94,22.53,23,24.17,23.89,6.57,3.59,14.37,5.27,22.84,5.27,39.52,0,93.84-36.64,108.12-88.25,13-46.9-9.89-94.62-40.88-120.72C248.13,108,216,94.59,189.69,94.59Z"/><path class="cls-4" d="M175.82,222.29a33.42,33.42,0,0,0,22,7,32.63,32.63,0,0,0,16.39-5.61"/><path class="cls-4" d="M176.6,224.74a33.42,33.42,0,0,0,17.81,14.74,32.63,32.63,0,0,0,17.3.93"/><g class="cls-5"><path d="M153,112.22l.48-.57c.32-.37.8-.93,1.46-1.62a47.28,47.28,0,0,1,18-11.8A37.48,37.48,0,0,1,176.76,97c1.35-.37,2.77-.68,4.23-.94a53.59,53.59,0,0,1,9.3-.73,80.34,80.34,0,0,1,9.95.74l1.27.18.64.09.32,0,.16,0h.08l.23,0,2.45.47,2.49.48c.84.17,1.65.29,2.57.54,1.79.44,3.61.92,5.45,1.41s3.56,1.12,5.38,1.69,3.59,1.27,5.41,2c.9.36,1.82.68,2.72,1.07l2.7,1.18,2.72,1.19,2.68,1.32,2.69,1.35,2.66,1.45,2.67,1.47,2.63,1.56c1.77,1,3.47,2.18,5.2,3.31A147.08,147.08,0,0,1,273,132.5c2.92,2.8,5.87,5.69,8.75,8.72A119.22,119.22,0,0,1,290,150.8q1.93,2.49,3.71,5.07c1.17,1.73,2.28,3.49,3.35,5.25l1.56,2.66,1.47,2.69c.48.89.92,1.81,1.37,2.71l.33.68.26.53.14.32.56,1.3,1.11,2.57.55,1.28c.18.42.37.84.54,1.33q1.06,2.84,2,5.63a111.47,111.47,0,0,1,2.91,10.82,108.81,108.81,0,0,1,2.44,20.12,120.25,120.25,0,0,1-.78,16.91,117.64,117.64,0,0,1-2.3,12.72c-.82,3.47-1.69,6.14-2.25,8s-1,2.76-1,2.76l.05-2.91,0-3.47L306,243c-.06-3.49-.27-7.71-.67-12.48s-1.14-10.11-2.24-15.8c-.32-1.42-.6-2.87-.9-4.34L301.1,206c-.35-1.51-.87-3-1.3-4.53l-.69-2.3-.82-2.3c-1-3.09-2.31-6.21-3.63-9.3q-1.08-2.22-2.11-4.5c-.16-.37-.38-.78-.6-1.19l-.66-1.23L290,178.15l-.66-1.24-.17-.31c0,.06-.13-.25.06.12l0-.07-.09-.14-.34-.57-1.36-2.29L286,171.37l-1.49-2.24c-1-1.48-2.07-3-3.18-4.39s-2.22-2.89-3.39-4.31A185.89,185.89,0,0,0,262.05,144c-2.72-2.61-5.56-5.12-8.5-7.51-1.45-1.21-3-2.35-4.43-3.54s-3-2.3-4.53-3.37-3.05-2.17-4.61-3.19l-2.3-1.56-2.34-1.47L233,121.93l-2.36-1.36-2.34-1.37-2.36-1.27-2.35-1.27c-.78-.42-1.58-.77-2.37-1.16-1.59-.73-3.12-1.58-4.7-2.23s-3.13-1.4-4.66-2-3-1.15-4.52-1.75c-.71-.31-1.57-.56-2.37-.83l-2.4-.79-2.37-.77-2.09-.63a82.72,82.72,0,0,0-8.57-2,47,47,0,0,0-15.12-.32,52,52,0,0,0-11.67,3.13,58.44,58.44,0,0,0-7.26,3.46C153.86,111.68,153,112.22,153,112.22Z"/></g><path class="cls-6" d="M176.26,58.35c5.92-.81,8.68-1.16,13.94-1.66,1.06.9,1.58,1.36,2.59,2.29l-.46,1.61c-2.88.93-4.49,2.63-4.69,5,.91,4.06,1,6.35.43,6.75-.53,1.76-1.23,2.83-2.15,3.24l.12,1.52c1,.78,1.5,1.18,2.46,2,.24,3.74.36,5.62.58,9.31l1.36,1c4.54.41,7.07,0,8.12-1.42l3.58-4.77c1.3,1.14,2,3.74,2,7.6l-2.36,4-2.22.93c-4.41-.57-6.73-.8-11.84-1.36-4.43,1.19-7.68.82-9.48-.86,0-1,.07-1.45.12-2.42,1.41-.9,2.11-1.37,3.51-2.32-.73-1.6-1.1-2.39-1.87-4,.06-4.95.56-8,1.44-9-1-1.56-1.47-2.33-2.49-3.85.32-6.38-1.23-9.91-5.2-10.36l.35-1.55Z"/><path class="cls-6" d="M221.22,57.73a8.09,8.09,0,0,1,5,6.63c-.43,1.45-.64,2.19-1,3.69,1.54,1,2.5,3,2.85,5.78-.7,2.16-1,3.25-1.71,5.43a5.75,5.75,0,0,1,2.77,4.88,10.34,10.34,0,0,1-2.34,6.24c2.9,3.59,4.44,6.56,4.71,8.53-1.33.76-2,1.14-3.26,1.89-2-1.19-2.95-1.72-4.89-2.72-1.26-.15-1.88-.21-3.12-.3-.28-.68-.43-1-.72-1.71.11-.61.17-.92.27-1.55,2.33-1.2,2.64-3.87.5-8.08-4.22-1.64-6.86-.94-7.81,1.49,0,1.5,0,2.25,0,3.72,1.28,1.22,1.7,2.35,1.35,3.35-1.05.66-1.57,1-2.61,1.66-4.08.19-6.21-.51-6.34-2.56,0-.82.07-1.24.11-2.07,1.25-1.79,1.88-2.69,3.17-4.52.51-3.89,1.92-6.59,4.3-7.86,0-1.78,0-2.68,0-4.46,1.13-2.57,1.71-3.86,2.92-6.38,1.08-1.22,1.63-1.82,2.76-3-.21-1.12-.31-1.67-.52-2.77C219.32,59.29,220.64,57.65,221.22,57.73ZM216,77.82l1,1.28c1.53,0,2.3,0,3.85,0-.06-.7-.09-1-.16-1.74-.68-.81-1-1.21-1.72-2l-1.15-.17C217,76.27,216.68,76.78,216,77.82Z"/><path class="cls-6" d="M256.89,67.75c3.43,1.82,5.08,2.76,8.27,4.72,1,3.13,1.52,4.78,2.36,8.11-.31,2.13-.48,3.23-.83,5.44a21.07,21.07,0,0,1,2.23,11.87c1.94-2.37,2.93-3.54,4.94-5.78,1.23-1,2.22-.59,2.84,1.29-.42,2.55-.65,3.84-1.16,6.39-1,.67-1.91,2.21-2.66,4.57-.56,1.92-.86,2.87-1.46,4.75l-1.79,1.57c-.59,1.45-2.61,4-5.81,7.43l-2.18.37-1.12-1.42c.51-3.27.73-5,1-8.66-.31-3.74-.55-5.7-1.22-9.69.41-2.26.6-3.4,1-5.69-1.4-1.67-2.13-2.5-3.67-4.17-1.79,6.71-4,9.73-6.49,9.17-.14-1.66-.23-2.51-.42-4.21,1.29-4.62,1.91-7,3.17-11.6,1-2.38,1.48-3.55,2.5-5.79-.24-1.14-.37-1.7-.63-2.81-2.26-1.88-3.41-3.57-3.28-5C254.24,68.2,255.12,68,256.89,67.75Zm-7.07,32.82c.88,1,1.3,1.53,2.12,2.55.16,1.41.23,2.1.35,3.46a3.19,3.19,0,0,1,1.42,3.4c-.37.8-.55,1.19-.93,2-1,1-2.53.81-4.74-.54-1.5-1.15-2.27-1.73-3.89-2.92-.34-.9-.51-1.35-.88-2.27.38-1,.56-1.46.93-2.48l2.23,0c1-1.2,1.46-1.82,2.43-3.09ZM279.68,80.7c2.79,1.94,4.15,2.94,6.8,5,.42,1.11.62,1.67,1,2.79-.35,1.1-1.34,1.68-2.94,1.78-1.25-.17-1.87-.24-3.12-.35-1.33.37-2,.58-3.31,1-.8-1.16-1.22-1.74-2.06-2.89.61-.49.48-2.45-.66-5.8.52-1,.78-1.42,1.3-2.34C277.88,80.23,278.48,80.38,279.68,80.7Z"/><path class="cls-6" d="M296.21,94.21c3.37,3.16,5,4.81,8.22,8.27,0,1.18,0,1.77-.08,3-1,1.45-2.56,1.33-4.62-.28-1,1.05-3.06,2-6.14,3.23l-.64-.65-1.5,1.72c1.18,2.26,0,4.59-3.47,7.12-1.63.32-2.44.49-4,.88l-.75.87c.94.92.84,2.21-.27,3.79A15.17,15.17,0,0,0,278.4,127a11,11,0,0,1-7.75.63c-1-2-1.54-3-2.68-5,.2-.93.3-1.41.48-2.37,1.07-1.93,2-2.89,2.74-2.72,1.67,1.07,2.49,1.62,4.13,2.77l3-2.62c1.16-.51,1.74-.75,2.93-1.23-.27-1.31.32-3.12,1.75-5.46a21.82,21.82,0,0,1,6.69-6.42c1.05-2.47,1.55-3.71,2.5-6.13-.3-1.17-.46-1.75-.8-2.91C292.92,93,294.51,92.62,296.21,94.21Z"/><path class="cls-6" d="M308.8,107.16c2.8,3.53,4.17,5.35,6.88,9.13,1.33,1.18,1.71,2.23,1.12,3.11l-1.57,1.19c-1.58-.37-2.38-.53-4-.82L308,121.65c-1.57-.25-2.36-.36-3.92-.53l-.87.72c-.49,1.85-.75,2.78-1.3,4.6-4.87,4.62-8.25,7.18-10,7.87l-1.6,2.3c-.11.9-.17,1.34-.28,2.23a3.38,3.38,0,0,1,2.26,2.92c1.39.77,2.08,1.16,3.47,2,2.33-.06,3.52-.08,5.93-.08-.07,1.8-.11,2.69-.22,4.45-3.23,2.31-5.33,3.1-6.55,2.5-3-.17-5.61-2-8.23-5.34l-1-3.62c-3.91-2.76-3.21-6.85,2.32-14.45l8.59-8c1.09-1,2.16-1.2,3.22-.52,2-3.08,3-4.64,4.84-7.69,0-1.31,0-2-.1-3.27C306.08,106.27,307.46,106.1,308.8,107.16Zm15,19.21c2.53,3.59,3.77,5.42,6.17,9.18-.06,1.33-.11,2-.22,3.33l-2.76.34c-2.46-1.6-3.7-2.36-6.2-3.81-.66-1.34-1-2-1.67-3.35,1.28-1.24,1.27-3.36,0-6.36l1.61-1.13C321.9,125.27,322.53,125.63,323.76,126.36Zm-6,8.43c.28,1.56.41,2.33.65,3.88-1.57,1.17-2.37,1.76-4,2.93-3.53,2.06-6.64,3.11-9.23,3.2-1.73-1.89-1.54-3.49.64-4.88,3.58-2.28,5.41-3.43,8.91-5.68C315.94,134.46,316.55,134.57,317.75,134.8Z"/><path class="cls-6" d="M333,142.42l-.15.7c2.13,2.42,3.18,3.67,5.23,6.22,1.88,3.9,2.78,5.88,4.45,9.89l.74.35c2.15,6.13,1.22,10.91-3.08,14L332.85,175a19.67,19.67,0,0,1-7.27-2.64l-4,.74c-.8,1-1.21,1.56-2,2.59l-3.39.55c-.51,4.64-1.7,6.92-3.18,7-2.75-.46-4.11-1.37-4.31-2.82-.37-1-.56-1.45-.95-2.4.5-3.21,1.77-5,4-5.13,0-1.13,0-1.7-.09-2.84,1.18-2.57,1.77-3.88,2.89-6.58-2.49,1-3.72,1.53-6.08,2.53l-2.29-1-1,.43a2.9,2.9,0,0,1-.65,3.17l-3.26-.89c-3.08-4.47-4.2-7.35-2.9-9.05.74-.76,1.88-.89,3.42-.36,1.05,1.75,2.31,2.27,3.9,1.5l1.76-2.38,4.29-2.61c6.95-3.2,10.69-4.85,17.26-7.92.19-1.79.27-2.69.39-4.5C330.76,141.28,331.91,141.27,333,142.42Zm-.67,11.39c-.63,1.88-3.25,4-8,6.23,1.7,3.33,3.19,4.79,4.6,4.28,4.64-1.67,6.86-3.26,6.9-4.83C334.42,157.19,333.72,156.05,332.3,153.81Z"/><path class="cls-6" d="M350.05,177.8c.63,2.45.92,3.68,1.44,6.16,1.2.53,2.73,3.74,4.06,9.8a114.73,114.73,0,0,1,1.63,12.2c-1.19,1.79-1.82,2.66-3.16,4.38-1.32-.39-2-.58-3.38-1-1.5-1.52-2.28-2.26-3.87-3.72,1.24-2.76,1.81-4.15,2.83-7-1-4.19-1.59-6.26-2.9-10.32a32.78,32.78,0,0,1-10.34,6c-1.89-.8-2.84-1.18-4.74-1.92l-1.51,1.25a10.39,10.39,0,0,1-6.75-2.87c-.16,2.27-1.72,4.13-4.41,5.51.9,3,1.3,4.6,2,7.77-.1.77-.15,1.15-.26,1.92l4.06.65c.64,1.32,1,2,1.57,3.34l-1.63,1.09c-6.52.32-9.52-.82-10.23-3.51A97.42,97.42,0,0,0,311.41,194c-1.14-4.53-1.46-7.41-.53-8.88,4.46,1.14,6.89,1.8,11.86,3.35.55-3.66,3.61-4.8,9.51-2.86,3.24-2.7,7.81-4.45,13.33-5,.06-1.16.08-1.74.11-2.91,1.1-.75,1.64-1.13,2.67-1.89C349,176.63,349.38,177,350.05,177.8Zm-27.2,11.12-.54.1.14.48.55-.1Zm20.35,12.63c-.42,2.25-1.24,3.58-2.38,4l-2.37.16c-1.43-1.61-2.16-2.39-3.64-3.92.24-1.48.35-2.22.54-3.71C336.79,197.25,339.48,198.28,343.2,201.56Zm-9.51.84c-.55,1.08-.83,1.62-1.4,2.69-2-.18-3.1-.6-3.21-1.27.55-1.05.83-1.58,1.36-2.65C332.49,201.32,333.58,201.74,333.69,202.39Z"/><g class="cls-5"><path d="M229.92,15l-13,1.38-3.25.34-3.23.42-6.46.8-6.45.8-6.44.94c-4.29.63-8.58,1.23-12.86,2s-8.56,1.33-12.82,2.14l-12.77,2.38q-6.36,1.33-12.72,2.6l-12.66,2.8c-4.21,1-8.4,2-12.6,3s-8.36,2.19-12.53,3.28L89.67,41.31,77.26,45c-4.11,1.32-8.24,2.55-12.34,3.89S56.72,51.55,52.65,53s-8.14,2.83-12.19,4.31-8.08,3-12.12,4.49l3.82-6.66C33.1,59.7,34,64.27,35,68.82l1.46,6.84L38,82.47c2.09,9.09,4.45,18.11,6.83,27.12l3.77,13.47,4,13.39,4.23,13.33L61.35,163l4.71,13.17c1.56,4.39,3.28,8.73,4.92,13.09s3.43,8.67,5.16,13l2.63,6.48,2.73,6.44c1.82,4.29,3.61,8.6,5.57,12.83s3.78,8.52,5.79,12.73l6,12.64c2,4.19,4.18,8.34,6.26,12.51l1.57,3.13.76,1.5.83,1.56,3.3,6.24,3.3,6.24c1.1,2.08,2.26,4.07,3.38,6.11l3.4,6.08c1.13,2,2.26,4.06,3.46,6.07l7.09,12.08,7.34,11.94c2.48,4,5,7.87,7.54,11.82,5.13,7.81,10.3,15.61,15.66,23.28s10.85,15.26,16.49,22.74,11.32,14.95,17.15,22.3l8.84,11c3,3.62,5.94,7.28,9,10.86q9.06,10.81,18.29,21.51c-3.43-3.23-6.85-6.46-10.22-9.76l-5.06-4.93-5-5c-3.34-3.33-6.58-6.75-9.88-10.13s-6.48-6.86-9.67-10.34c-6.35-7-12.63-14-18.75-21.24s-12-14.58-17.85-22-11.5-15-17-22.75c-2.71-3.88-5.46-7.74-8.14-11.65L123,320.65l-7.62-12-1.89-3-1.83-3.07L108,296.43c-1.2-2-2.47-4.09-3.62-6.14L101,284.14,97.49,278l-.86-1.54-.46-.85-.41-.79-1.66-3.15c-2.2-4.2-4.45-8.38-6.61-12.6l-6.34-12.74c-2.09-4.26-4-8.59-6-12.88s-3.92-8.64-5.82-13L66.43,214c-.93-2.18-1.8-4.39-2.71-6.58-1.77-4.4-3.64-8.76-5.3-13.21s-3.45-8.84-5.06-13.31-3.22-8.93-4.77-13.41l-4.51-13.5-4.25-13.58L35.9,126.68l-3.68-13.75c-2.35-9.19-4.54-18.43-6.49-27.72S22,66.59,20.4,57.24l-.86-5.06,4.69-1.6c4.15-1.41,8.27-2.89,12.45-4.23l6.24-2.05,6.28-1.94c4.18-1.32,8.4-2.5,12.6-3.74s8.44-2.35,12.66-3.5l12.74-3.2c4.27-1,8.52-2,12.79-3s8.56-1.81,12.86-2.65,8.59-1.64,12.9-2.4l12.93-2.16q6.49-1,13-1.84l13-1.53c4.33-.52,8.69-.85,13-1.28s8.7-.67,13.05-1l6.53-.41,6.54-.27,6.53-.24,3.26-.11,3.26,0Z"/></g></g></g></svg>